<?xml version="1.0" encoding="UTF-8"?>
<svg width="435pt" version="1.1" xmlns="http://www.w3.org/2000/svg" height="184pt" viewBox="0 0 435 184" xmlns:xlink="http://www.w3.org/1999/xlink">
 <defs>
  <clipPath id="Clip0">
   <path d="M0 0 L0 183.591 L434.059 183.591 L434.059 0 L0 0 Z" transform="translate(0, 0.40918)"/>
  </clipPath>
 </defs>
 <g id="Background">
  <g id="Group1" clip-path="url(#Clip0)">
   <path style="fill:#0088c7; fill-rule:evenodd;stroke:none;" d="M11.5107 35.6816 L50.5918 81.7578 L0 127.971 L38.4658 127.971 L72.4062 94.7637 C88.1699 113.337 108.52 139.329 125.188 156.564 C151.112 183.37 182.161 191.707 219.65 176.539 C238.131 169.064 259.081 155.847 283.064 135.586 C258.833 144.823 217.902 175.572 178.522 161.732 C155.937 153.794 117.654 104.788 96.668 81.7578 C113.401 65.584 137.361 38.8867 156.814 28.3926 C204.045 2.91601 244.378 38.9883 269.183 49.1299 C235.388 15.544 206.492 1.31738 180.988 0.499024 C165.438 0 149 5.39648 134.082 14.1992 C116.122 24.7959 103.953 38.6318 89.6318 53.2451 L74.4375 68.751 L47.7617 35.6816 L11.5107 35.6816 Z" transform="translate(0, -0.0585938)"/>
   <path style="fill:#bc004a; fill-rule:evenodd;stroke:none;" d="M256.023 10.0948 L264.755 10.0948 L262.126 34.6788 C261.931 36.4961 261.353 38.1192 260.393 39.5499 C259.433 40.9795 258.201 42.0997 256.702 42.9063 C255.453 43.5791 253.761 44.0596 251.626 44.3448 C249.492 44.6319 246.893 44.7754 243.832 44.7754 C241.309 44.7754 239.09 44.6739 237.176 44.4717 C235.263 44.2696 233.674 43.8663 232.409 43.2608 C231.144 42.6543 230.22 41.7881 229.634 40.6592 C229.048 39.5323 228.839 38.0274 229.006 36.1436 L237.891 36.1436 C237.896 36.7149 238.025 37.1602 238.277 37.4805 C238.528 37.7999 238.939 38.0528 239.508 38.2374 C240.079 38.4229 240.806 38.5401 241.692 38.5909 C242.578 38.6416 243.662 38.667 244.94 38.667 C246.556 38.667 247.894 38.5743 248.958 38.3887 C250.02 38.2041 250.878 37.9014 251.528 37.4805 C252.179 37.0596 252.651 36.504 252.943 35.8145 C253.235 35.1241 253.437 34.2588 253.549 33.2149 L254.029 28.7227 C253.462 29.6299 252.884 30.3877 252.298 30.9932 C251.711 31.6006 251.011 32.0879 250.197 32.4571 C249.384 32.8282 248.413 33.0967 247.284 33.2657 C246.156 33.4336 244.767 33.5186 243.118 33.5186 C240.493 33.5186 238.252 33.3916 236.394 33.1387 C234.538 32.8877 233.052 32.3819 231.938 31.6241 C230.824 30.8672 230.059 29.7735 229.64 28.3448 C229.22 26.9141 229.135 25.0372 229.383 22.7149 C229.463 21.9747 229.588 21.1094 229.762 20.1163 C229.935 19.1241 230.117 18.0547 230.308 16.9102 C231.099 12.0303 235.549 9.5909 243.659 9.5909 C245.679 9.5909 247.359 9.6075 248.702 9.6416 C250.044 9.6749 251.163 9.8438 252.055 10.1456 C252.947 10.4493 253.661 10.9366 254.195 11.6104 C254.729 12.2833 255.182 13.2413 255.553 14.4874 L256.023 10.0948 Z M238.447 21.504 C238.318 22.7149 238.29 23.6836 238.364 24.4053 C238.437 25.1299 238.731 25.6924 239.242 26.0977 C239.756 26.501 240.542 26.7627 241.607 26.8799 C242.671 26.9971 244.113 27.0557 245.93 27.0557 C247.443 27.0557 248.719 27.0069 249.758 26.9053 C250.793 26.8047 251.649 26.5938 252.323 26.2745 C252.996 25.9541 253.507 25.5088 253.853 24.9366 C254.202 24.3633 254.424 23.6241 254.521 22.7149 C254.686 21.167 254.75 19.9473 254.711 19.0567 C254.672 18.1641 254.382 17.4913 253.841 17.0372 C253.302 16.5821 252.447 16.3047 251.281 16.2041 C250.113 16.1026 248.504 16.0518 246.451 16.0518 C244.802 16.0518 243.482 16.1192 242.491 16.254 C241.502 16.3897 240.726 16.6495 240.161 17.0372 C239.599 17.4239 239.203 17.9786 238.975 18.7022 C238.745 19.4258 238.569 20.3604 238.447 21.504 Z M201.997 14.9415 C202.442 13.9327 202.962 13.0831 203.559 12.3926 C204.152 11.7032 204.918 11.1563 205.852 10.751 C206.787 10.3477 207.93 10.0528 209.278 9.8692 C210.628 9.6836 212.278 9.5909 214.23 9.5909 C217.326 9.5909 219.746 10.0948 221.488 11.1055 C223.232 12.1143 224.342 13.6797 224.822 15.8008 C224.998 16.6749 225.063 17.5665 225.017 18.4756 C224.969 19.3838 224.893 20.3262 224.789 21.3018 L223.467 33.669 L214.531 33.669 L215.854 21.3018 C215.966 20.2588 215.965 19.4092 215.85 18.753 C215.735 18.0967 215.444 17.584 214.979 17.2139 C214.515 16.8428 213.827 16.5918 212.915 16.4571 C212.005 16.3213 210.792 16.254 209.277 16.254 C207.628 16.254 206.301 16.3975 205.294 16.6827 C204.287 16.9698 203.493 17.3985 202.91 17.9698 C202.327 18.542 201.914 19.2569 201.671 20.1163 C201.428 20.9747 201.245 21.9747 201.123 23.1202 L199.995 33.669 L191.262 33.669 L193.784 10.0948 L202.516 10.0948 L201.997 14.9415 Z M189.613 0 L188.928 6.4112 L180.195 6.4112 L180.882 0 L189.613 0 Z M188.534 10.0948 L186.012 33.669 L177.278 33.669 L179.801 10.0948 L188.534 10.0948 Z M150.51 14.9415 C150.954 13.9327 151.474 13.0831 152.069 12.3926 C152.665 11.7032 153.43 11.1563 154.365 10.751 C155.3 10.3477 156.442 10.0528 157.792 9.8692 C159.141 9.6836 160.792 9.5909 162.743 9.5909 C165.839 9.5909 168.259 10.0948 170.001 11.1055 C171.743 12.1143 172.855 13.6797 173.336 15.8008 C173.51 16.6749 173.576 17.5665 173.528 18.4756 C173.481 19.3838 173.406 20.3262 173.302 21.3018 L171.978 33.669 L163.044 33.669 L164.366 21.3018 C164.478 20.2588 164.477 19.4092 164.362 18.753 C164.247 18.0967 163.957 17.584 163.492 17.2139 C163.027 16.8428 162.339 16.5918 161.428 16.4571 C160.517 16.3213 159.304 16.254 157.79 16.254 C156.141 16.254 154.812 16.3975 153.807 16.6827 C152.799 16.9698 152.005 17.3985 151.423 17.9698 C150.84 18.542 150.427 19.2569 150.185 20.1163 C149.939 20.9747 149.757 21.9747 149.635 23.1202 L148.506 33.669 L139.772 33.669 L142.295 10.0948 L151.028 10.0948 L150.51 14.9415 Z M119.935 14.7901 C120.299 13.9141 120.742 13.1504 121.267 12.4942 C121.791 11.8379 122.431 11.2999 123.182 10.878 C123.935 10.4581 124.835 10.1377 125.884 9.92 C126.935 9.7002 128.198 9.5909 129.68 9.5909 C131.969 9.5909 133.726 9.8184 134.957 10.2725 C136.186 10.7266 137.065 11.4073 137.591 12.3165 C138.116 13.2256 138.383 14.3526 138.391 15.6993 C138.397 17.0459 138.308 18.5928 138.12 20.3438 L129.942 20.3438 C129.943 19.7041 129.938 19.1241 129.927 18.6006 C129.916 18.0801 129.778 17.6426 129.513 17.2881 C129.247 16.9356 128.796 16.6661 128.16 16.4805 C127.524 16.2969 126.583 16.2041 125.338 16.2041 C121.637 16.2041 119.589 18.0372 119.197 21.7061 L117.917 33.669 L109.185 33.669 L111.706 10.0948 L120.439 10.0948 L119.935 14.7901 Z M95.106 29.8331 C94.713 30.6739 94.226 31.3731 93.645 31.9278 C93.064 32.4825 92.344 32.9297 91.484 33.2657 C90.623 33.6016 89.597 33.837 88.405 33.9717 C87.212 34.1075 85.792 34.1749 84.143 34.1749 C81.82 34.1749 79.86 34.0987 78.262 33.9473 C76.662 33.795 75.404 33.4424 74.488 32.8877 C73.572 32.3311 72.951 31.5245 72.627 30.4639 C72.304 29.4043 72.235 27.9815 72.427 26.1983 C72.622 24.3819 73.06 22.96 73.742 21.9327 C74.424 20.9073 75.347 20.1407 76.512 19.6368 C77.675 19.1319 79.089 18.8204 80.751 18.7022 C82.412 18.584 84.304 18.5264 86.423 18.5264 C87.803 18.5264 88.997 18.5264 90.007 18.5264 C91.016 18.5264 91.893 18.5928 92.636 18.7276 C93.378 18.8624 94.017 19.1065 94.552 19.46 C95.085 19.8125 95.584 20.3438 96.047 21.0489 L96.322 18.4756 C96.423 17.5333 96.381 16.8174 96.198 16.3301 C96.015 15.8428 95.6 15.4805 94.952 15.2442 C94.303 15.0098 93.384 14.8741 92.193 14.8409 C91.002 14.8067 89.465 14.7901 87.58 14.7901 C86.032 14.7901 84.935 14.8995 84.289 15.1192 C83.643 15.337 83.257 15.8848 83.129 16.7588 L74.446 16.7588 C74.652 15.1446 75.153 13.8565 75.945 12.8975 C76.738 11.9375 77.892 11.2149 79.408 10.7266 C80.924 10.2383 82.842 9.9268 85.162 9.793 C87.48 9.6583 90.29 9.5909 93.588 9.5909 C95.775 9.5909 97.655 9.709 99.227 9.9444 C100.802 10.1797 102.069 10.6006 103.032 11.2071 C103.993 11.8125 104.66 12.6446 105.035 13.7051 C105.409 14.7647 105.509 16.1192 105.332 17.7696 L103.632 33.669 L94.696 33.669 L95.106 29.8331 Z M81.041 25.8956 C80.969 26.5684 81.056 27.0899 81.302 27.461 C81.55 27.8301 81.925 28.0997 82.428 28.2686 C82.931 28.4356 83.56 28.5372 84.313 28.5704 C85.066 28.6045 85.898 28.6211 86.806 28.6211 C88.389 28.6211 89.721 28.5957 90.803 28.545 C91.885 28.4952 92.774 28.3682 93.468 28.167 C94.162 27.9649 94.672 27.6788 94.998 27.3086 C95.324 26.9395 95.521 26.4336 95.59 25.794 C95.654 25.1885 95.568 24.7266 95.334 24.4053 C95.1 24.087 94.703 23.8506 94.148 23.7002 C93.592 23.5489 92.887 23.4561 92.032 23.4219 C91.178 23.3887 90.144 23.3711 88.934 23.3711 C87.79 23.3711 86.744 23.3887 85.799 23.4219 C84.852 23.4561 84.042 23.5489 83.37 23.7002 C82.699 23.8506 82.159 24.0948 81.753 24.4307 C81.347 24.7686 81.109 25.2559 81.041 25.8956 Z M45.565 24.3819 C45.472 25.2559 45.497 25.9629 45.642 26.501 C45.786 27.0391 46.093 27.4688 46.563 27.7881 C47.034 28.1084 47.685 28.3262 48.513 28.4444 C49.341 28.5625 50.395 28.6211 51.674 28.6211 C53.323 28.6211 54.661 28.6133 55.69 28.5957 C56.718 28.5791 57.526 28.4864 58.116 28.3194 C58.707 28.1504 59.123 27.8809 59.364 27.5108 C59.606 27.1407 59.779 26.6192 59.886 25.9463 L68.517 25.9463 C68.348 27.5284 67.963 28.8487 67.361 29.9083 C66.76 30.9678 65.894 31.8184 64.766 32.4571 C63.638 33.0967 62.226 33.544 60.535 33.795 C58.842 34.0479 56.817 34.1749 54.462 34.1749 C51.097 34.1749 48.238 34.0733 45.888 33.8711 C43.537 33.669 41.654 33.1807 40.239 32.4073 C38.825 31.6329 37.853 30.4883 37.326 28.9756 C36.797 27.461 36.674 25.3907 36.955 22.7657 C37.289 19.6368 37.812 17.1973 38.52 15.4463 C39.229 13.6963 40.304 12.3926 41.741 11.5342 C43.179 10.6758 45.06 10.1456 47.388 9.9444 C49.714 9.7422 52.661 9.6416 56.228 9.6416 C58.954 9.6416 61.234 9.793 63.07 10.0948 C64.905 10.3985 66.296 11.004 67.242 11.9131 C67.974 12.6192 68.482 13.376 68.765 14.1846 C69.051 14.9922 69.208 15.875 69.24 16.835 C69.27 17.794 69.228 18.8204 69.112 19.9131 C68.995 21.0079 68.885 22.1944 68.78 23.4727 L45.663 23.4727 L45.565 24.3819 Z M60.681 18.9805 L60.757 18.2735 C60.843 17.4659 60.783 16.835 60.58 16.3809 C60.378 15.9258 60.008 15.5899 59.476 15.3702 C58.945 15.1524 58.253 15.0098 57.402 14.9415 C56.552 14.8741 55.52 14.8409 54.31 14.8409 C53.064 14.8409 51.959 14.8663 50.995 14.917 C50.03 14.9668 49.208 15.1104 48.526 15.3448 C47.845 15.5811 47.311 15.9258 46.927 16.3809 C46.542 16.835 46.304 17.4825 46.214 18.3243 L46.143 18.9805 L60.681 18.9805 Z M13.95 0 L11.244 25.2901 L34.414 25.2901 L33.517 33.669 L0 33.669 L3.602 0 L13.95 0 Z" transform="translate(165.503, 49.9355)"/>
   <path style="fill:#bc004a; fill-rule:evenodd;stroke:none;" d="M255.283 24.9875 C253.028 24.9875 251.021 24.9525 249.263 24.8855 C247.502 24.8185 246.04 24.5675 244.876 24.1285 C243.711 23.6915 242.862 22.9765 242.328 21.9845 C241.795 20.9915 241.63 19.5535 241.832 17.6675 C241.964 16.4225 242.314 15.2865 242.877 14.2615 C243.443 13.2345 244.157 12.4345 245.027 11.8635 C246.083 11.1215 247.794 10.6185 250.162 10.3475 C252.528 10.0795 255.597 9.9445 259.365 9.9445 C262.125 9.9445 264.425 10.0035 266.263 10.1215 C268.102 10.2405 269.568 10.5335 270.66 11.0035 C271.754 11.4765 272.514 12.1655 272.939 13.0745 C273.362 13.9835 273.538 15.2445 273.467 16.8595 L264.279 16.8595 C264.252 16.4905 264.142 16.1865 263.948 15.9525 C263.754 15.7155 263.42 15.5395 262.944 15.4215 C262.47 15.3035 261.846 15.2285 261.076 15.1945 C260.306 15.1615 259.364 15.1435 258.254 15.1435 C257.11 15.1435 256.092 15.1525 255.198 15.1685 C254.305 15.1865 253.547 15.2615 252.927 15.3965 C252.308 15.5305 251.821 15.7415 251.472 16.0275 C251.121 16.3135 250.918 16.7265 250.86 17.2645 C250.81 17.7355 250.899 18.0805 251.127 18.2985 C251.357 18.5175 251.744 18.6775 252.288 18.7795 C252.833 18.8795 253.543 18.9295 254.417 18.9295 C255.292 18.9295 256.352 18.9295 257.597 18.9295 C258.136 18.9295 258.708 18.9205 259.317 18.9045 C259.924 18.8875 260.481 18.8795 260.985 18.8795 C263.306 18.8795 265.311 18.9375 266.997 19.0555 C268.684 19.1735 270.048 19.4775 271.091 19.9645 C272.132 20.4525 272.862 21.1675 273.284 22.1095 C273.704 23.0515 273.828 24.3305 273.655 25.9475 C273.461 27.7635 273.052 29.2275 272.429 30.3375 C271.805 31.4485 270.813 32.3155 269.449 32.9375 C268.088 33.5605 266.293 33.9715 264.068 34.1735 C261.842 34.3765 259.047 34.4775 255.682 34.4775 C253.057 34.4775 250.774 34.4265 248.832 34.3265 C246.892 34.2245 245.29 33.9295 244.031 33.4425 C242.771 32.9535 241.86 32.1885 241.298 31.1465 C240.737 30.1015 240.542 28.6215 240.713 26.7025 L249.85 26.7025 C249.788 27.2765 249.867 27.7215 250.085 28.0415 C250.304 28.3615 250.691 28.6055 251.244 28.7725 C251.798 28.9415 252.519 29.0425 253.408 29.0765 C254.295 29.1105 255.379 29.1265 256.658 29.1265 C258.071 29.1265 259.283 29.1185 260.295 29.1015 C261.307 29.0845 262.131 28.9995 262.771 28.8485 C263.408 28.6985 263.888 28.4615 264.208 28.1415 C264.528 27.8235 264.72 27.3755 264.78 26.8035 C264.87 25.9635 264.572 25.4495 263.885 25.2655 C263.197 25.0795 262.047 24.9875 260.433 24.9875 L255.283 24.9875 Z M214.12 24.7355 C214.026 25.6095 214.052 26.3165 214.196 26.8545 C214.34 27.3925 214.648 27.8235 215.118 28.1415 C215.589 28.4615 216.238 28.6795 217.068 28.7975 C217.897 28.9155 218.95 28.9745 220.229 28.9745 C221.879 28.9745 223.216 28.9665 224.245 28.9505 C225.272 28.9325 226.081 28.8395 226.672 28.6725 C227.262 28.5035 227.678 28.2345 227.919 27.8655 C228.161 27.4945 228.334 26.9725 228.44 26.2995 L237.071 26.2995 C236.902 27.8815 236.518 29.2025 235.916 30.2625 C235.315 31.3235 234.449 32.1715 233.32 32.8115 C232.193 33.4505 230.781 33.8975 229.088 34.1495 C227.397 34.4025 225.372 34.5285 223.017 34.5285 C219.651 34.5285 216.793 34.4265 214.443 34.2245 C212.092 34.0225 210.208 33.5355 208.793 32.7605 C207.378 31.9865 206.409 30.8425 205.881 29.3285 C205.353 27.8145 205.229 25.7445 205.51 23.1195 C205.844 19.9905 206.366 17.5505 207.075 15.7995 C207.784 14.0505 208.86 12.7465 210.296 11.8875 C211.734 11.0295 213.616 10.4995 215.943 10.2985 C218.269 10.0965 221.215 9.9945 224.783 9.9945 C227.509 9.9945 229.789 10.1475 231.625 10.4495 C233.46 10.7525 234.851 11.3585 235.797 12.2665 C236.529 12.9725 237.036 13.7305 237.32 14.5375 C237.604 15.3465 237.763 16.2285 237.793 17.1885 C237.826 18.1485 237.783 19.1735 237.667 20.2675 C237.551 21.3625 237.44 22.5475 237.335 23.8265 L214.218 23.8265 L214.12 24.7355 Z M229.236 19.3335 L229.312 18.6265 C229.398 17.8195 229.339 17.1885 229.135 16.7345 C228.931 16.2795 228.563 15.9435 228.031 15.7245 C227.5 15.5065 226.808 15.3635 225.958 15.2955 C225.107 15.2285 224.074 15.1945 222.863 15.1945 C221.618 15.1945 220.514 15.2195 219.55 15.2705 C218.585 15.3215 217.763 15.4635 217.081 15.6995 C216.4 15.9345 215.865 16.2795 215.481 16.7345 C215.096 17.1885 214.86 17.8355 214.769 18.6775 L214.698 19.3335 L229.236 19.3335 Z M193.11 24.3815 L201.992 24.3815 C201.765 26.5015 201.304 28.2265 200.606 29.5555 C199.908 30.8845 198.856 31.9185 197.446 32.6615 C196.039 33.4005 194.202 33.8975 191.937 34.1495 C189.672 34.4025 186.858 34.5285 183.492 34.5285 C180.565 34.5285 178.134 34.3595 176.201 34.0225 C174.269 33.6865 172.764 33.0555 171.684 32.1295 C170.605 31.2045 169.901 29.9265 169.57 28.2935 C169.24 26.6615 169.212 24.5675 169.486 22.0095 C169.775 19.3175 170.315 17.1715 171.108 15.5725 C171.902 13.9745 173.05 12.7635 174.551 11.9385 C176.053 11.1145 177.936 10.5755 180.201 10.3245 C182.466 10.0715 185.213 9.9445 188.445 9.9445 C191.372 9.9445 193.78 10.0795 195.67 10.3475 C197.559 10.6185 199.037 11.1215 200.101 11.8635 C201.166 12.6035 201.851 13.6035 202.152 14.8675 C202.455 16.1285 202.501 17.7355 202.293 19.6865 L193.51 19.6865 C193.477 19.0475 193.371 18.5345 193.194 18.1485 C193.018 17.7605 192.697 17.4505 192.235 17.2135 C191.773 16.9775 191.108 16.8195 190.242 16.7345 C189.375 16.6505 188.235 16.6085 186.823 16.6085 C185.241 16.6085 183.929 16.6835 182.886 16.8355 C181.844 16.9865 180.998 17.2645 180.349 17.6675 C179.7 18.0725 179.219 18.6355 178.906 19.3595 C178.594 20.0825 178.374 21.0335 178.248 22.2105 C178.108 23.5235 178.148 24.5585 178.37 25.3165 C178.592 26.0725 179.002 26.6365 179.603 27.0065 C180.202 27.3755 181 27.6125 181.999 27.7125 C182.998 27.8145 184.205 27.8655 185.618 27.8655 C188.042 27.8655 189.856 27.6545 191.062 27.2345 C192.269 26.8125 192.929 26.0635 193.044 24.9875 L193.11 24.3815 Z M141.886 15.2955 C142.33 14.2865 142.852 13.4365 143.445 12.7465 C144.041 12.0565 144.806 11.5095 145.741 11.1055 C146.676 10.7025 147.818 10.4075 149.168 10.2225 C150.517 10.0365 152.168 9.9445 154.119 9.9445 C157.215 9.9445 159.635 10.4495 161.377 11.4595 C163.119 12.4685 164.231 14.0345 164.712 16.1545 C164.887 17.0285 164.95 17.9205 164.904 18.8295 C164.858 19.7375 164.782 20.6805 164.678 21.6555 L163.355 34.0225 L154.42 34.0225 L155.744 21.6555 C155.855 20.6135 155.854 19.7625 155.738 19.1065 C155.623 18.4505 155.333 17.9375 154.868 17.5665 C154.403 17.1975 153.715 16.9455 152.804 16.8105 C151.894 16.6755 150.681 16.6085 149.166 16.6085 C147.517 16.6085 146.189 16.7505 145.183 17.0365 C144.176 17.3235 143.381 17.7515 142.799 18.3245 C142.216 18.8955 141.803 19.6115 141.56 20.4695 C141.317 21.3275 141.134 22.3275 141.012 23.4735 L139.882 34.0225 L131.149 34.0225 L133.671 10.4495 L142.404 10.4495 L141.886 15.2955 Z M104.279 24.7355 C104.185 25.6095 104.212 26.3165 104.355 26.8545 C104.5 27.3925 104.808 27.8235 105.278 28.1415 C105.747 28.4615 106.399 28.6795 107.228 28.7975 C108.055 28.9155 109.11 28.9745 110.389 28.9745 C112.037 28.9745 113.375 28.9665 114.403 28.9505 C115.432 28.9325 116.241 28.8395 116.831 28.6725 C117.422 28.5035 117.836 28.2345 118.078 27.8655 C118.319 27.4945 118.494 26.9725 118.6 26.2995 L127.232 26.2995 C127.062 27.8815 126.676 29.2025 126.075 30.2625 C125.474 31.3235 124.61 32.1715 123.481 32.8115 C122.351 33.4505 120.942 33.8975 119.248 34.1495 C117.555 34.4025 115.531 34.5285 113.177 34.5285 C109.812 34.5285 106.952 34.4265 104.601 34.2245 C102.25 34.0225 100.368 33.5355 98.953 32.7605 C97.538 31.9865 96.568 30.8425 96.039 29.3285 C95.512 27.8145 95.389 25.7445 95.67 23.1195 C96.004 19.9905 96.526 17.5505 97.235 15.7995 C97.943 14.0505 99.017 12.7465 100.454 11.8875 C101.893 11.0295 103.775 10.4995 106.102 10.2985 C108.429 10.0965 111.375 9.9945 114.943 9.9945 C117.668 9.9945 119.949 10.1475 121.785 10.4495 C123.62 10.7525 125.01 11.3585 125.955 12.2665 C126.688 12.9725 127.196 13.7305 127.48 14.5375 C127.764 15.3465 127.921 16.2285 127.953 17.1885 C127.985 18.1485 127.943 19.1735 127.825 20.2675 C127.709 21.3625 127.6 22.5475 127.495 23.8265 L104.376 23.8265 L104.279 24.7355 Z M119.395 19.3335 L119.471 18.6265 C119.558 17.8195 119.498 17.1885 119.295 16.7345 C119.091 16.2795 118.723 15.9435 118.191 15.7245 C117.659 15.5065 116.968 15.3635 116.116 15.2955 C115.267 15.2285 114.235 15.1945 113.024 15.1945 C111.777 15.1945 110.673 15.2195 109.709 15.2705 C108.745 15.3215 107.921 15.4635 107.24 15.6995 C106.559 15.9345 106.026 16.2795 105.641 16.7345 C105.256 17.1885 105.017 17.8355 104.927 18.6775 L104.857 19.3335 L119.395 19.3335 Z M93.612 0.3545 L92.927 6.7645 L84.193 6.7645 L84.879 0.3545 L93.612 0.3545 Z M92.532 10.4495 L90.01 34.0225 L81.277 34.0225 L83.8 10.4495 L92.532 10.4495 Z M69.588 24.3815 L78.472 24.3815 C78.245 26.5015 77.783 28.2265 77.086 29.5555 C76.389 30.8845 75.335 31.9185 73.927 32.6615 C72.52 33.4005 70.682 33.8975 68.416 34.1495 C66.152 34.4025 63.337 34.5285 59.972 34.5285 C57.044 34.5285 54.614 34.3595 52.682 34.0225 C50.749 33.6865 49.242 33.0555 48.164 32.1295 C47.086 31.2045 46.381 29.9265 46.051 28.2935 C45.721 26.6615 45.693 24.5675 45.966 22.0095 C46.254 19.3175 46.795 17.1715 47.588 15.5725 C48.382 13.9745 49.529 12.7635 51.031 11.9385 C52.533 11.1145 54.416 10.5755 56.681 10.3245 C58.945 10.0715 61.693 9.9445 64.924 9.9445 C67.853 9.9445 70.26 10.0795 72.15 10.3475 C74.04 10.6185 75.517 11.1215 76.582 11.8635 C77.647 12.6035 78.33 13.6035 78.632 14.8675 C78.934 16.1285 78.982 17.7355 78.773 19.6865 L69.99 19.6865 C69.958 19.0475 69.853 18.5345 69.675 18.1485 C69.497 17.7605 69.178 17.4505 68.716 17.2135 C68.252 16.9775 67.587 16.8195 66.722 16.7345 C65.856 16.6505 64.716 16.6085 63.303 16.6085 C61.721 16.6085 60.408 16.6835 59.366 16.8355 C58.323 16.9865 57.479 17.2645 56.829 17.6675 C56.18 18.0725 55.699 18.6355 55.386 19.3595 C55.073 20.0825 54.854 21.0335 54.728 22.2105 C54.587 23.5235 54.628 24.5585 54.85 25.3165 C55.072 26.0725 55.483 26.6365 56.082 27.0065 C56.682 27.3755 57.481 27.6125 58.481 27.7125 C59.479 27.8145 60.685 27.8655 62.099 27.8655 C64.521 27.8655 66.335 27.6545 67.541 27.2345 C68.748 26.8125 69.408 26.0635 69.524 24.9875 L69.588 24.3815 Z M32.291 10.6515 C32.339 9.8765 32.27 9.2635 32.083 8.8095 C31.897 8.3555 31.521 8.0185 30.955 7.7985 C30.389 7.5805 29.63 7.4375 28.679 7.3695 C27.727 7.3025 26.493 7.2695 24.98 7.2695 C24.71 7.2695 24.491 7.2695 24.323 7.2695 C24.154 7.2695 23.935 7.2865 23.661 7.3205 C21.464 7.4205 19.624 7.4715 18.143 7.4715 C16.662 7.4715 15.459 7.5475 14.535 7.6995 C13.61 7.8495 12.924 8.1275 12.477 8.5315 C12.03 8.9355 11.756 9.6075 11.655 10.5505 C11.566 11.3915 11.8 12.0235 12.361 12.4435 C12.922 12.8645 13.739 13.0905 14.812 13.1245 C16.323 13.1585 17.758 13.1925 19.118 13.2255 C20.477 13.2595 21.746 13.2765 22.923 13.2765 C23.63 13.2765 24.362 13.2675 25.122 13.2505 C25.881 13.2345 26.597 13.2255 27.27 13.2255 C30.063 13.2255 32.478 13.3015 34.514 13.4525 C36.55 13.6035 38.197 14.0165 39.455 14.6905 C40.713 15.3635 41.587 16.3885 42.078 17.7685 C42.57 19.1485 42.683 21.0835 42.416 23.5735 C42.229 25.3235 41.902 26.8035 41.437 28.0165 C40.97 29.2275 40.333 30.2285 39.525 31.0195 C38.717 31.8105 37.734 32.4245 36.577 32.8615 C35.419 33.2985 34.058 33.6025 32.492 33.7705 C31.572 33.8715 29.81 33.9885 27.204 34.1235 C24.599 34.2585 21.276 34.3265 17.239 34.3265 C13.268 34.3265 10.042 34.2075 7.559 33.9715 C5.077 33.7375 3.307 33.2155 2.249 32.4085 C1.503 31.8355 0.972 31.2215 0.655 30.5655 C0.338 29.9095 0.144 29.2105 0.071 28.4705 C0 27.7305 0.009 26.9305 0.101 26.0725 C0.193 25.2145 0.293 24.2805 0.401 23.2715 L10.547 23.2715 C10.507 23.6405 10.465 24.0295 10.422 24.4325 C10.379 24.8345 10.424 25.1985 10.559 25.5165 C10.693 25.8365 10.965 26.1215 11.376 26.3755 C11.785 26.6275 12.443 26.7865 13.344 26.8545 C13.777 26.8885 14.589 26.9215 15.78 26.9555 C16.971 26.9895 18.476 27.0065 20.293 27.0065 C22.649 27.0065 24.577 26.9895 26.078 26.9555 C27.58 26.9215 28.761 26.8035 29.624 26.6035 C30.487 26.4005 31.091 26.0985 31.438 25.6945 C31.784 25.2905 31.998 24.7025 32.081 23.9275 C32.16 23.1875 32.071 22.6065 31.813 22.1855 C31.556 21.7645 31.15 21.4625 30.598 21.2775 C30.046 21.0915 29.376 20.9825 28.589 20.9485 C27.802 20.9145 26.937 20.8985 25.995 20.8985 C22.7 20.8645 19.773 20.8565 17.214 20.8725 C14.654 20.8895 12.44 20.8315 10.57 20.6975 C8.7 20.5625 7.135 20.3265 5.875 19.9905 C4.615 19.6535 3.63 19.1155 2.918 18.3735 C2.207 17.6335 1.739 16.6595 1.516 15.4475 C1.292 14.2365 1.279 12.7035 1.476 10.8535 C1.653 9.2035 1.949 7.7735 2.365 6.5625 C2.78 5.3515 3.369 4.334 4.13 3.5088 C4.892 2.6846 5.844 2.045 6.986 1.5909 C8.128 1.1368 9.518 0.8086 11.154 0.6065 C12.246 0.4707 14.002 0.3379 16.422 0.2032 C18.842 0.0674 21.87 0 25.505 0 C27.422 0 29.147 0.0088 30.676 0.0254 C32.206 0.042 33.56 0.1182 34.74 0.253 C35.921 0.3877 36.951 0.5811 37.833 0.834 C38.715 1.087 39.465 1.4649 40.084 1.9688 C40.767 2.5088 41.286 3.0791 41.642 3.6866 C41.998 4.292 42.238 4.9485 42.365 5.6545 C42.491 6.3615 42.544 7.1265 42.524 7.9515 C42.502 8.7755 42.44 9.6745 42.335 10.6515 L32.291 10.6515 Z" transform="translate(160.328, 95.5605)"/>
   <path style="fill:#0088c7; fill-rule:evenodd;stroke:none;" d="M0 86.4446 L8.451 5.2167 C10.727 3.4375 13.089 1.6689 15.511 0 L5.836 92.9886 C3.864 90.8276 1.92 88.6436 0 86.4446 Z" transform="translate(142.037, 36.9854)"/>
   <path style="fill:#0088c7; fill-rule:evenodd;stroke:none;" d="M11.122 18.9395 L13.162 0 C15.408 1.0743 17.624 2.1983 19.819 3.3565 L18.252 17.8995 C16.44 18.4834 14.752 19.335 13.286 20.4952 C12.611 19.8965 11.887 19.3809 11.122 18.9395 Z M0 122.157 L2.183 101.898 C3.208 101.836 4.231 101.751 5.246 101.639 C6.478 101.501 7.716 101.296 8.928 100.998 L8.868 101.558 L9.238 101.558 L7.262 119.896 C4.844 120.726 2.423 121.482 0 122.157 Z" transform="translate(224.336, 35.5771)"/>
   <path style="fill:#0088c7; fill-rule:evenodd;stroke:none;" d="M10.861 16.1318 L12.35 2.3125 C14.788 1.3691 17.209 0.6044 19.617 0 L17.878 16.1318 L10.861 16.1318 Z M0 116.919 L0.786 109.626 C2.584 110.279 4.511 110.62 6.401 110.8 C6.822 110.839 7.243 110.875 7.666 110.908 L6.401 122.642 C4.136 120.75 2.032 118.829 0.209 117.116 L0 116.919 Z" transform="translate(160.772, 26.252)"/>
   <path style="fill:#0088c7; fill-rule:evenodd;stroke:none;" d="M6.557 1.0469 L6.678 0 L7.712 0.0264 C7.325 0.3662 6.939 0.7051 6.557 1.0469 Z M0 57.9932 L0.814 50.917 C3.453 48.4102 6.076 45.8848 8.703 43.3623 L6.155 65.4912 C4.112 62.9844 2.066 60.4805 0 57.9932 Z" transform="translate(110.238, 27.1484)"/>
   <path style="fill:#0088c7; fill-rule:evenodd;stroke:none;" d="M10.061 5.3164 L10.611 0 C12.8 1.2598 15.01 2.5234 17.242 3.7334 L17.053 5.5664 C15.284 5.376 13.491 5.3115 11.719 5.3115 C11.167 5.3115 10.614 5.3135 10.061 5.3164 Z M0 102.507 L1.244 90.4719 L8.262 90.4719 L7.37 99.0939 C4.922 100.26 2.467 101.402 0 102.507 Z" transform="translate(247.373, 46.6631)"/>
   <path style="fill:#0088c7; fill-rule:evenodd;stroke:none;" d="M8.97 43.249 L13.266 0.0127 C15.605 0 17.932 0.1152 20.251 0.3447 L16.761 35.4795 C16.24 36.3086 15.791 37.1924 15.414 38.1231 C14.759 39.7402 14.294 41.4844 13.954 43.249 L8.97 43.249 Z M0 133.546 L2.046 112.955 C3.47 112.922 4.893 112.874 6.312 112.8 C7.231 112.753 8.163 112.708 9.093 112.652 L6.827 135.471 C4.531 134.981 2.254 134.342 0 133.546 Z" transform="translate(181.61, 24.4248)"/>
   <path style="fill:#0088c7; fill-rule:evenodd;stroke:none;" d="M8.721 0.834 L8.801 0 L9.916 0.0722 C9.517 0.3242 9.118 0.5781 8.721 0.834 Z M0 91.0202 L4.362 45.9082 C4.958 45.3545 5.554 44.8027 6.152 44.2519 C8.102 42.4541 10.069 40.667 12.057 38.9004 L6.284 98.6062 C4.178 96.0872 2.086 93.5572 0 91.0202 Z" transform="translate(126.167, 13.5928)"/>
   <path style="fill:#0088c7; fill-rule:evenodd;stroke:none;" d="M11.339 24.4131 L13.88 0 L13.94 0.0166 L13.977 0.0283 L14.077 0.0566 L14.767 0.2588 L14.866 0.2881 L14.876 0.291 L14.964 0.3174 L15.557 0.4951 L15.655 0.5254 L15.754 0.5557 L15.852 0.5859 L15.951 0.6162 L16.049 0.6465 L16.544 0.7988 L16.641 0.8311 L16.74 0.8623 L16.747 0.8633 L16.839 0.8926 L16.936 0.9248 L17.133 0.9873 L17.233 1.0176 L17.43 1.082 L17.528 1.1133 L17.824 1.209 L17.922 1.2412 L18.02 1.2725 L18.12 1.3057 L18.218 1.3379 L18.317 1.3701 L18.415 1.4033 L18.809 1.5342 L18.908 1.5674 L19.005 1.6006 L19.104 1.6328 L19.203 1.667 L19.301 1.7002 L19.4 1.7334 L19.695 1.834 L19.794 1.8682 L19.892 1.9014 L19.99 1.9355 L20.089 1.9687 L20.187 2.0039 L17.873 24.2461 C15.702 24.2519 13.512 24.291 11.339 24.4131 Z M0 133.39 L2.715 107.282 C4.495 108.271 6.463 108.89 8.491 109.244 C8.667 109.276 8.842 109.303 9.02 109.331 L6.568 132.897 L6.465 132.909 L6.362 132.92 L6.259 132.932 L5.745 132.989 L5.641 133 L5.436 133.022 L5.333 133.032 L5.024 133.064 L4.921 133.073 L4.819 133.083 L4.715 133.093 L4.538 133.109 L4.51 133.112 L4.407 133.121 L4.305 133.131 L4.202 133.14 L4.1 133.15 L3.997 133.157 L3.988 133.159 L3.688 133.185 L3.586 133.192 L3.483 133.199 L3.38 133.208 L3.278 133.215 L3.174 133.224 L3.073 133.231 L2.663 133.26 L2.559 133.266 L2.458 133.273 L2.354 133.279 L2.253 133.285 L2.149 133.292 L1.851 133.31 L1.841 133.311 L1.74 133.317 L1.637 133.322 L1.535 133.326 L1.432 133.332 L1.329 133.337 L1.022 133.352 L0.92 133.356 L0.818 133.359 L0.715 133.364 L0.613 133.368 L0.595 133.37 L0.102 133.387 L0 133.39 Z" transform="translate(203.224, 27.7793)"/>
  </g>
 </g>
</svg>
